<?xml version="1.0" standalone="no"?>
<!DOCTYPE svg PUBLIC "-//W3C//DTD SVG 20010904//EN"
 "http://www.w3.org/TR/2001/REC-SVG-20010904/DTD/svg10.dtd">
<svg version="1.0" xmlns="http://www.w3.org/2000/svg"
 width="109.000000pt" height="109.000000pt" viewBox="0 0 109.000000 109.000000"
 preserveAspectRatio="xMidYMid meet">
<metadata>
Created by potrace 1.11, written by Peter Selinger 2001-2013
</metadata>
<g transform="translate(0.000000,109.000000) scale(0.100000,-0.100000)"
fill="#000000" stroke="none">
<path d="M300 983 c-85 -25 -156 -47 -158 -48 -3 -3 -141 -533 -142 -543 0 -1
19 -21 42 -44 99 -95 205 -195 229 -215 l25 -23 70 36 c98 51 250 153 311 208
70 63 98 109 83 136 -20 37 -72 20 -193 -62 -82 -56 -137 -78 -209 -84 -111
-11 -193 27 -238 106 -20 37 -25 59 -25 125 0 68 4 89 28 137 46 95 165 205
307 286 30 18 48 31 40 31 -8 -1 -85 -21 -170 -46z"/>
<path d="M696 914 c-204 -102 -351 -213 -396 -297 -20 -38 -22 -48 -11 -61 27
-32 72 -17 208 71 125 80 141 86 213 86 196 2 301 -171 213 -353 -30 -63 -166
-205 -253 -263 -30 -20 -50 -37 -45 -37 16 0 316 88 323 94 3 4 36 127 74 274
l68 267 -124 120 c-68 66 -132 127 -142 137 -18 15 -25 13 -128 -38z"/>
</g>
</svg>
